<?xml version="1.0" encoding="utf-8"?>
<?xml-stylesheet type="text/xsl" href="rss1.xsl"?>
<rss version="2.0" xmlns:atom="http://www.w3.org/2005/Atom" xmlns:content="http://purl.org/rss/1.0/modules/content/" xmlns:dc="http://purl.org/dc/elements/1.1/" xmlns:media="http://search.yahoo.com/mrss/">
<channel>
 <title>Getty</title>
 <link>http://www.gettyimg.com/</link>
 <atom:link href="http://www.gettyimg.com/" rel="self" type="application/rss+xml" />

 
                <item>
                <title><![CDATA[【Singles (lossless)】ALAC - MAX BARSKIH — В твоїх очах | 24bit/44.1kHz | Apple Alac |]]></title>
                <link><![CDATA[https://sharemania.us/threads/max-barskih-%E2%80%94-%D0%92-%D1%82%D0%B2%D0%BE%D1%97%D1%85-%D0%BE%D1%87%D0%B0%D1%85-24bit-44-1khz-apple-alac.242894/]]></link>
                <description><![CDATA[<article>
<blockquote class="messageText SelectQuoteContainer ugc baseHtml">
<div style="text-align: center"><img src="https://static.qobuz.com/images/covers/mc/7k/aumr51gxj7kmc_600.jpg" class="bbCodeImage LbImage" alt="[​IMG]" data-url="https://static.qobuz.com/images/covers/mc/7k/aumr51gxj7kmc_600.jpg" style=""><br>
​</div>
<div class="ToggleTriggerAnchor bbCodeSpoilerContainer">
<button type="button" class="button bbCodeSpoilerButton ToggleTrigger Tooltip JsOnly" data-target="> .SpoilerTarget"><span>Spoiler: <span class="SpoilerTitle">Apple Music</span></span></button>
<div class="SpoilerTarget bbCodeSpoilerText">
<div class="bbCodeBlock bbCodeCode">
<div class="type">Code:</div>
<pre>General
Complete name                            : 01. В твоїх очах.m4a
Format                                   : MPEG-4
Format profile                           : Apple audio with iTunes info
Codec ID                                 : M4A  (M4A /mp42/isom)
File size                                : 31.6 MiB
Duration                                 : 2 min 48 s
Overall bit rate mode                    : Variable
Overall bit rate                         : 1 576 kb/s
Album                                    : В твоїх очах - Single
Album/Performer                          : MAX BARSKIH
Track name                               : В твоїх очах
Track name/Position                      : 1
Track name/Total                         : 1
Performer                                : MAX BARSKIH
Composer                                 : MAX BARSKIH
Genre                                    : Pop
Recorded date                            : 2024
Encoded date                             : 2024-03-18 17:00:06 UTC
Tagged date                              : 2024-03-18 17:00:06 UTC
ISRC                                     : UABM12400210
Copyright                                : ℗ 2024 Best Music
LABEL                                    : BEST MUSIC
UPC                                      : 198391603532

Audio
ID                                       : 1
Format                                   : ALAC
Codec ID                                 : alac
Codec ID/Info                            : Apple Lossless Audio Codec
Duration                                 : 2 min 48 s
Duration_LastFrame                       : -22 ms
Bit rate mode                            : Variable
Bit rate                                 : 1 575 kb/s
Nominal bit rate                         : 2 117 kb/s
Channel(s)                               : 2 channels
Sampling rate                            : 44.1 kHz
Bit depth                                : 24 bits
Stream size                              : 31.6 MiB (100%)
Title                                    : Core Media Audio
Encoded date                             : 2024-03-18 17:00:06 UTC
Tagged date                              : 2024-03-18 17:00:06 UTC

</pre>
</div><div style="text-align: center">​</div></div>
</div><div style="text-align: center"><br>
<div class="bbCodeBlock bbCodeVfcHH HiddenContent">
<div class="attribution type">Hidden Content:</div>
<blockquote>You must reply before you can see the hidden data contained here.</blockquote>
</div></div>
<div class="messageTextEndMarker">&nbsp;</div>
</blockquote>
</article>]]></description>
                <author><![CDATA[fstambuk]]></author>
                </item>

                
                <item>
                <title><![CDATA[【Singles (lossless)】ALAC - DOROFEEVA, Lebiga - А я все плакала | 24bit/48.0kHz | Apple Alac |]]></title>
                <link><![CDATA[https://sharemania.us/threads/dorofeeva-lebiga-%D0%90-%D1%8F-%D0%B2%D1%81%D0%B5-%D0%BF%D0%BB%D0%B0%D0%BA%D0%B0%D0%BB%D0%B0-24bit-48-0khz-apple-alac.242893/]]></link>
                <description><![CDATA[<article>
<blockquote class="messageText SelectQuoteContainer ugc baseHtml">
<div style="text-align: center"><img src="https://static.qobuz.com/images/covers/9a/k6/vrol6fkpck69a_600.jpg" class="bbCodeImage LbImage" alt="[​IMG]" data-url="https://static.qobuz.com/images/covers/9a/k6/vrol6fkpck69a_600.jpg" style=""><br>
<img src="https://i.postimg.cc/bvhZjQ76/apple-music-hifi-Howpple-Apple-Music-mejor-calidad-modified.png" class="bbCodeImage LbImage" alt="[​IMG]" data-url="https://i.postimg.cc/bvhZjQ76/apple-music-hifi-Howpple-Apple-Music-mejor-calidad-modified.png" style=""><br>
​</div>
<div class="ToggleTriggerAnchor bbCodeSpoilerContainer">
<button type="button" class="button bbCodeSpoilerButton ToggleTrigger Tooltip JsOnly" data-target="> .SpoilerTarget"><span>Spoiler: <span class="SpoilerTitle">Apple Music</span></span></button>
<div class="SpoilerTarget bbCodeSpoilerText">
<div class="bbCodeBlock bbCodeCode">
<div class="type">Code:</div>
<pre>General
Complete name                            : 01. А я все плакала.m4a
Format                                   : MPEG-4
Format profile                           : Apple audio with iTunes info
Codec ID                                 : M4A  (M4A /mp42/isom)
File size                                : 30.6 MiB
Duration                                 : 2 min 30 s
Overall bit rate mode                    : Variable
Overall bit rate                         : 1 710 kb/s
Album                                    : А я все плакала - Single
Album/Performer                          : DOROFEEVA &amp; LEBIGA
Track name                               : А я все плакала
Track name/Position                      : 1
Track name/Total                         : 1
Performer                                : DOROFEEVA &amp; LEBIGA
Composer                                 : Надя Дорофєєва, Михайло Лебіга, Михайло Кацурін &amp; Ivan Klymenko
Genre                                    : Pop
Recorded date                            : 2024
Encoded date                             : 2024-04-09 12:51:19 UTC
Tagged date                              : 2024-04-09 12:51:19 UTC
ISRC                                     : QM6MZ2422153
Copyright                                : ℗ 2024 pomitni
LABEL                                    : pomitni
UPC                                      : 198391720246

Audio
ID                                       : 1
Format                                   : ALAC
Codec ID                                 : alac
Codec ID/Info                            : Apple Lossless Audio Codec
Duration                                 : 2 min 30 s
Duration_LastFrame                       : -16 ms
Bit rate mode                            : Variable
Bit rate                                 : 1 709 kb/s
Nominal bit rate                         : 2 304 kb/s
Channel(s)                               : 2 channels
Sampling rate                            : 48.0 kHz
Bit depth                                : 24 bits
Stream size                              : 30.6 MiB (100%)
Title                                    : Core Media Audio
Encoded date                             : 2024-04-09 12:51:19 UTC
Tagged date                              : 2024-04-09 12:51:19 UTC

</pre>
</div><div style="text-align: center">​</div></div>
</div><div style="text-align: center">
<div class="bbCodeBlock bbCodeVfcHH HiddenContent">
<div class="attribution type">Hidden Content:</div>
<blockquote>You must reply before you can see the hidden data contained here.</blockquote>
</div></div>
<div class="messageTextEndMarker">&nbsp;</div>
</blockquote>
</article>]]></description>
                <author><![CDATA[fstambuk]]></author>
                </item>

                </channel></rss>